<svg xmlns="http://www.w3.org/2000/svg" viewBox="0 0 124.17 123.88"><defs><style>.cls-1{opacity:0.85;}.cls-2{fill:#fff;}.cls-3,.cls-5{fill:none;stroke:#fff;stroke-miterlimit:10;}.cls-3{stroke-width:1.2px;opacity:0.45;}.cls-4{opacity:0.7;}.cls-5{stroke-width:3px;}</style></defs><g id="Layer_2" data-name="Layer 2"><g id="Layer_1-2" data-name="Layer 1"><g class="cls-1"><path class="cls-2" d="M103.44,17.47V99.69H21.23V17.47h82.21m1.2-1.2H20v84.62h84.61V16.27Z"/></g><path class="cls-3" d="M104.7,16.23l18-14.87a.16.16,0,0,1,.26.15l-18.35,99.31a.16.16,0,0,0,0,.13l18.1,21.28a.16.16,0,0,1-.16.26L20.12,100.91a.18.18,0,0,0-.16,0L.88,123.23a.16.16,0,0,1-.28-.13L20,16.36a.16.16,0,0,0-.06-.15L2,1.45a.16.16,0,0,1,.12-.28L104.57,16.26A.15.15,0,0,0,104.7,16.23Z"/><g class="cls-4"><path class="cls-2" d="M123,1.2V122.47H1.7V1.2H123m1.2-1.2H.5V123.67H124.17V0Z"/></g><polyline class="cls-5" points="73.86 52.62 62.25 64.22 50.89 52.87"/></g></g></svg>