{"accessors" : [{"bufferView" : 0, "byteOffset" : 0, "componentType" : 5123, "count" : 1530, "type" : "SCALAR", "max" : [511], "min" : [0]}, {"bufferView" : 1, "byteOffset" : 0, "componentType" : 5126, "count" : 512, "type" : "VEC3", "max" : [-16.312000274658203, 38.438899993896484, 4.70419979095459], "min" : [-32.8828010559082, 26.826499938964844, 3.8603999614715576]}, {"bufferView" : 1, "byteOffset" : 12, "componentType" : 5126, "count" : 512, "type" : "VEC3", "max" : [0.9999715685844421, 0.9997623562812805, 1.0000044107437134], "min" : [-0.9999620318412781, -0.9999963641166687, -1.0000044107437134]}, {"bufferView" : 0, "byteOffset" : 3060, "componentType" : 5123, "count" : 7581, "type" : "SCALAR", "max" : [4060], "min" : [0]}, {"bufferView" : 2, "byteOffset" : 0, "componentType" : 5126, "count" : 4061, "type" : "VEC3", "max" : [-8.085399627685547, 38.5619010925293, 4.736700057983398], "min" : [-39.532100677490234, 6.286600112915039, 4.019899845123291]}, {"bufferView" : 2, "byteOffset" : 12, "componentType" : 5126, "count" : 4061, "type" : "VEC2", "max" : [0.9994999766349792, -0.0005000000237487257], "min" : [0.0005000000237487257, -0.9994999766349792]}, {"bufferView" : 2, "byteOffset" : 20, "componentType" : 5126, "count" : 4061, "type" : "VEC3", "max" : [1.0000044107437134, 1.0000044107437134, 1.0000044107437134], "min" : [-1.0000044107437134, -1.0000044107437134, -1.0000044107437134]}, {"bufferView" : 0, "byteOffset" : 18224, "componentType" : 5123, "count" : 240, "type" : "SCALAR", "max" : [100], "min" : [0]}, {"bufferView" : 3, "byteOffset" : 0, "componentType" : 5126, "count" : 101, "type" : "VEC3", "max" : [-8.840700149536133, 8.991700172424316, 4.683000087738037], "min" : [-10.610699653625488, 7.139200210571289, 4.150400161743164]}, {"bufferView" : 3, "byteOffset" : 12, "componentType" : 5126, "count" : 101, "type" : "VEC2", "max" : [0.9661999940872192, -0], "min" : [0.033799998462200165, -0.5476999878883362]}, {"bufferView" : 3, "byteOffset" : 20, "componentType" : 5126, "count" : 101, "type" : "VEC3", "max" : [0.9720455408096313, 0.9994396567344666, 1.0000044107437134], "min" : [-0.9975231289863586, -0.9721705317497253, -1.0000044107437134]}, {"bufferView" : 0, "byteOffset" : 18704, "componentType" : 5123, "count" : 46512, "type" : "SCALAR", "max" : [10741], "min" : [0]}, {"bufferView" : 4, "byteOffset" : 0, "componentType" : 5126, "count" : 10742, "type" : "VEC3", "max" : [-19.77079963684082, 25.991199493408203, 4.649600028991699], "min" : [-27.954999923706055, 17.80699920654297, 4.256100177764893]}, {"bufferView" : 4, "byteOffset" : 12, "componentType" : 5126, "count" : 10742, "type" : "VEC2", "max" : [1, -0], "min" : [0.3100000023841858, -1]}, {"bufferView" : 4, "byteOffset" : 20, "componentType" : 5126, "count" : 10742, "type" : "VEC3", "max" : [1.0000030994415283, 1.0000030994415283, 1.0000044107437134], "min" : [-1.0000030994415283, -1.0000030994415283, -1.0000044107437134]}], "asset" : {"generator" : "Aspose.3D 21.1", "version" : "2.0"}, "buffers" : [{"uri" : "buffer.bin", "byteLength" : 1887124}], "bufferViews" : [{"buffer" : 0, "byteOffset" : 0, "byteLength" : 111728, "target" : 34963}, {"buffer" : 0, "byteOffset" : 111732, "byteLength" : 36720, "byteStride" : 24, "target" : 34962}, {"buffer" : 0, "byteOffset" : 148456, "byteLength" : 242592, "byteStride" : 32, "target" : 34962}, {"buffer" : 0, "byteOffset" : 391052, "byteLength" : 7680, "byteStride" : 32, "target" : 34962}, {"buffer" : 0, "byteOffset" : 398736, "byteLength" : 1488384, "byteStride" : 32, "target" : 34962}], "meshes" : [{"primitives" : [{"attributes" : {"POSITION" : 1, "NORMAL" : 2}, "indices" : 0, "mode" : 4}]}, {"primitives" : [{"attributes" : {"POSITION" : 4, "TEXCOORD_0" : 5, "NORMAL" : 6}, "indices" : 3, "mode" : 4}]}, {"primitives" : [{"attributes" : {"POSITION" : 8, "TEXCOORD_0" : 9, "NORMAL" : 10}, "indices" : 7, "mode" : 4}]}, {"primitives" : [{"attributes" : {"POSITION" : 12, "TEXCOORD_0" : 13, "NORMAL" : 14}, "indices" : 11, "mode" : 4}]}], "nodes" : [{"mesh" : 0, "name" : "Line02"}, {"mesh" : 1, "name" : "Line01"}, {"mesh" : 2, "name" : "kck"}, {"mesh" : 3, "name" : "Object01"}], "scene" : 0, "scenes" : [{"nodes" : [0, 1, 2, 3]}]}