<svg xmlns="http://www.w3.org/2000/svg" viewBox="0 0 123.67 123.67"><defs><style>.cls-1{opacity:0.85;}.cls-2{fill:#fff;}.cls-3{opacity:0.45;}.cls-4{opacity:0.7;}.cls-5{fill:none;stroke:#fff;stroke-miterlimit:10;stroke-width:6px;}</style></defs><g id="Layer_2" data-name="Layer 2"><g id="Layer_1-2" data-name="Layer 1"><g class="cls-1"><path class="cls-2" d="M99.14,21.27V95.89H24.53V21.27H99.14m5-5H19.53v84.62h84.61V16.27Z"/></g><g class="cls-3"><path class="cls-2" d="M18.14,8.65l85.2,12.56.39.05h.37a5.16,5.16,0,0,0,3.28-1.17l7.8-6.43L99.24,99.91a5.12,5.12,0,0,0,1.14,4.27l8.92,10.5L20.65,96l-.54-.11h-.52a5.14,5.14,0,0,0-3.92,1.8l-7.45,8.68L24.43,17.26a5.17,5.17,0,0,0-1.8-4.91l-4.49-3.7M1.62,1.17a.16.16,0,0,0-.1.28L19.46,16.21a.17.17,0,0,1,.05.15L.1,123.1a.15.15,0,0,0,.16.18.15.15,0,0,0,.12,0L19.47,101a.17.17,0,0,1,.12,0h0l102.51,21.58h0a.16.16,0,0,0,.12-.26L104.19,101a.16.16,0,0,1,0-.13L122.51,1.51a.16.16,0,0,0-.16-.19.14.14,0,0,0-.1,0l-18,14.87a.19.19,0,0,1-.1,0h0L1.65,1.17Z"/></g><g class="cls-4"><path class="cls-2" d="M118.67,5V118.67H5V5H118.67m5-5H0V123.67H123.67V0Z"/></g><polyline class="cls-5" points="50.39 64.22 62 52.62 73.36 63.97"/></g></g></svg>