<svg xmlns="http://www.w3.org/2000/svg" viewBox="0 0 544.93 124.76"><defs><style>.cls-1{opacity:0.85;}.cls-2,.cls-5{fill:#fff;}.cls-3{fill:none;stroke:#fff;stroke-miterlimit:10;stroke-width:1.2px;opacity:0.45;}.cls-4{opacity:0.7;}.cls-5{font-size:18.27px;font-family:Avenir-Heavy, Avenir;font-weight:800;letter-spacing:0.6em;}.cls-6{letter-spacing:0.53em;}.cls-7{letter-spacing:0.6em;}</style></defs><g id="Layer_2" data-name="Layer 2"><g id="Layer_1-2" data-name="Layer 1"><g class="cls-1"><path class="cls-2" d="M524.87,22.36V93.73H20V22.36H524.87m1.2-1.2H18.75V94.93H526.07V21.16Z"/></g><path class="cls-3" d="M526.24,21,543.38,2a.55.55,0,0,1,.94.47L526.11,94.72a.53.53,0,0,0,.07.39l18,28.21a.55.55,0,0,1-.49.84L19.07,95a.54.54,0,0,0-.49.25l-17,26.68a.55.55,0,0,1-1-.39L18.7,21.43a.54.54,0,0,0-.13-.47L1,1.51A.54.54,0,0,1,1.41.6l524.4,20.55A.55.55,0,0,0,526.24,21Z"/><g class="cls-4"><path class="cls-2" d="M543.5,1.75V123H1.32V1.75H543.5m1.2-1.2H.12V124.22H544.7V.55Z"/></g><text class="cls-5" transform="translate(221.9 63.3)">S<tspan class="cls-6" x="21.45" y="0">P</tspan><tspan class="cls-7" x="42.22" y="0">ACE</tspan></text></g></g></svg>