<svg xmlns="http://www.w3.org/2000/svg" viewBox="0 0 544.59 123.67"><defs><style>.cls-1{opacity:0.85;}.cls-2,.cls-5{fill:#fff;}.cls-3{opacity:0.45;}.cls-4{opacity:0.7;}.cls-5{font-size:26.27px;font-family:Avenir-Heavy, Avenir;font-weight:800;letter-spacing:0.6em;}.cls-6{letter-spacing:0.53em;}</style></defs><g id="Layer_2" data-name="Layer 2"><g id="Layer_1-2" data-name="Layer 1"><g class="cls-1"><path class="cls-2" d="M522,24.61V90.38H22.64V24.61H522m4-4H18.64V94.38H526V20.61Z"/></g><g class="cls-3"><path class="cls-2" d="M9.34,4.37,525.52,24.6h.2a4.55,4.55,0,0,0,3.37-1.49l8.77-9.71-15.79,80a4.51,4.51,0,0,0,.62,3.32L537,119.24,19.17,90.4h-.25a4.51,4.51,0,0,0-3.83,2.1L7.56,104.34l15-82.75a4.57,4.57,0,0,0-1.1-3.86L9.34,4.37M1.27.05A.54.54,0,0,0,.87,1L18.46,20.41a.57.57,0,0,1,.13.47L.49,120.94a.55.55,0,0,0,.55.64.53.53,0,0,0,.45-.25l17-26.68a.54.54,0,0,1,.46-.25h0l524.57,29.21h0a.55.55,0,0,0,.46-.84L526.07,94.56a.54.54,0,0,1-.08-.39L544.2,1.93a.54.54,0,0,0-.54-.65.57.57,0,0,0-.4.18l-17.14,19a.52.52,0,0,1-.4.18h0L1.3.05Z"/></g><g class="cls-4"><path class="cls-2" d="M540.59,4V119.67H4V4H540.59m4-4H0V123.67H544.59V0Z"/></g><text class="cls-5" transform="translate(199.67 66.75)">S<tspan class="cls-6" x="30.84" y="0">P</tspan><tspan x="60.71" y="0">ACE</tspan></text></g></g></svg>